<mxfile host="app.diagrams.net">
  <diagram name="Page-1">
    <mxGraphModel dx="1422" dy="794" grid="1" gridSize="10" guides="1" tooltips="1" connect="1" arrows="1" fold="1" 
                  page="1" pageScale="1" pageWidth="827" pageHeight="1169" math="0" shadow="0">
      <root>
        <mxCell id="0"/>
        <mxCell id="1" parent="0"/>
        
        <!-- Nodes -->
        <mxCell id="2" value="ETE Request Intake" style="shape=rectangle;whiteSpace=wrap;html=1;" vertex="1" parent="1">
          <mxGeometry x="40" y="200" width="120" height="50" as="geometry"/>
        </mxCell>
        
        <mxCell id="3" value="Signal Collectors&#xa;• Identity&#xa;• Approval&#xa;• Telemetry&#xa;• Context" 
                style="shape=rectangle;whiteSpace=wrap;html=1;" vertex="1" parent="1">
          <mxGeometry x="200" y="200" width="150" height="100" as="geometry"/>
        </mxCell>
        
        <mxCell id="4" value="Slot Indexer&#xa;32GB" style="shape=rectangle;whiteSpace=wrap;html=1;" vertex="1" parent="1">
          <mxGeometry x="400" y="200" width="120" height="80" as="geometry"/>
        </mxCell>
        
        <mxCell id="5" value="Executing Plan&#xa;32GB" style="shape=rectangle;whiteSpace=wrap;html=1;" vertex="1" parent="1">
          <mxGeometry x="600" y="150" width="120" height="80" as="geometry"/>
        </mxCell>
        
        <mxCell id="6" value="Executor" style="shape=rectangle;whiteSpace=wrap;html=1;" vertex="1" parent="1">
          <mxGeometry x="800" y="150" width="100" height="60" as="geometry"/>
        </mxCell>
        
        <mxCell id="7" value="Marker Synthesizer" style="shape=rectangle;whiteSpace=wrap;html=1;" vertex="1" parent="1">
          <mxGeometry x="200" y="350" width="120" height="60" as="geometry"/>
        </mxCell>
        
        <mxCell id="8" value="Override Module&#xa;64GB RAM request&#xa;Mark as overridden hardware" 
                style="shape=rectangle;whiteSpace=wrap;html=1;" vertex="1" parent="1">
          <mxGeometry x="400" y="350" width="200" height="100" as="geometry"/>
        </mxCell>
        
        <mxCell id="9" value="Drift &amp; Conflict Manager&#xa;64GB RAM Base Plan" 
                style="shape=rectangle;whiteSpace=wrap;html=1;" vertex="1" parent="1">
          <mxGeometry x="400" y="500" width="200" height="100" as="geometry"/>
        </mxCell>
        
        <!-- Edges -->
        <mxCell id="10" style="endArrow=block;html=1;" edge="1" parent="1" source="2" target="3">
          <mxGeometry relative="1" as="geometry"/>
        </mxCell>
        
        <mxCell id="11" value="Signals" style="endArrow=block;html=1;" edge="1" parent="1" source="3" target="4">
          <mxGeometry relative="1" as="geometry"/>
        </mxCell>
        
        <mxCell id="12" value="Tunables" style="endArrow=block;html=1;" edge="1" parent="1" source="4" target="5">
          <mxGeometry relative="1" as="geometry"/>
        </mxCell>
        
        <mxCell id="13" value="Execute" style="endArrow=block;html=1;" edge="1" parent="1" source="5" target="6">
          <mxGeometry relative="1" as="geometry"/>
        </mxCell>
        
        <mxCell id="14" value="Markers" style="endArrow=block;html=1;" edge="1" parent="1" source="3" target="7">
          <mxGeometry relative="1" as="geometry"/>
        </mxCell>
        
        <mxCell id="15" style="endArrow=block;html=1;" edge="1" parent="1" source="7" target="8">
          <mxGeometry relative="1" as="geometry"/>
        </mxCell>
        
        <mxCell id="16" style="endArrow=block;html=1;" edge="1" parent="1" source="4" target="8">
          <mxGeometry relative="1" as="geometry"/>
        </mxCell>
        
        <mxCell id="17" value="Overrides" style="endArrow=block;html=1;" edge="1" parent="1" source="8" target="6">
          <mxGeometry relative="1" as="geometry"/>
        </mxCell>
        
        <mxCell id="18" value="Overrides" style="endArrow=block;html=1;" edge="1" parent="1" source="8" target="9">
          <mxGeometry relative="1" as="geometry"/>
        </mxCell>
        
      </root>
    </mxGraphModel>
  </diagram>
</mxfile>
